<svg width="15" height="16" viewBox="0 0 15 16" fill="none" xmlns="http://www.w3.org/2000/svg">
<path d="M7.66289 3.46748C7.61927 3.42575 7.56124 3.40247 7.50088 3.40247C7.44052 3.40247 7.38248 3.42575 7.33887 3.46748L1.94531 8.61992C1.92241 8.64183 1.90418 8.66816 1.89175 8.69731C1.87931 8.72647 1.87291 8.75785 1.87295 8.78955L1.87207 13.6253C1.87207 13.8739 1.97084 14.1124 2.14666 14.2882C2.32247 14.464 2.56093 14.5628 2.80957 14.5628H5.625C5.74932 14.5628 5.86855 14.5134 5.95645 14.4255C6.04436 14.3376 6.09375 14.2184 6.09375 14.094V10.1097C6.09375 10.0475 6.11844 9.98789 6.1624 9.94393C6.20635 9.89998 6.26596 9.87529 6.32812 9.87529H8.67187C8.73403 9.87529 8.79365 9.89998 8.8376 9.94393C8.88155 9.98789 8.90625 10.0475 8.90625 10.1097V14.094C8.90625 14.2184 8.95563 14.3376 9.04354 14.4255C9.13145 14.5134 9.25068 14.5628 9.375 14.5628H12.1893C12.4379 14.5628 12.6764 14.464 12.8522 14.2882C13.028 14.1124 13.1268 13.8739 13.1268 13.6253V8.78955C13.1268 8.75785 13.1204 8.72647 13.108 8.69731C13.0955 8.66816 13.0773 8.64183 13.0544 8.61992L7.66289 3.46748Z" fill="white"/>
<path d="M14.3821 7.65369L12.1907 5.5572V2.37585C12.1907 2.25153 12.1413 2.13231 12.0534 2.0444C11.9655 1.95649 11.8463 1.9071 11.722 1.9071H10.3157C10.1914 1.9071 10.0722 1.95649 9.98427 2.0444C9.89637 2.13231 9.84698 2.25153 9.84698 2.37585V3.31335L8.15011 1.69089C7.99132 1.53035 7.75518 1.43835 7.50001 1.43835C7.24571 1.43835 7.01016 1.53035 6.85138 1.69119L0.619933 7.6531C0.437706 7.82888 0.414855 8.11804 0.580675 8.30847C0.622315 8.35654 0.6733 8.39563 0.730528 8.42337C0.787756 8.4511 0.850029 8.46691 0.913558 8.46981C0.977087 8.47272 1.04054 8.46266 1.10006 8.44026C1.15958 8.41787 1.21392 8.38359 1.25978 8.33953L7.33888 2.53054C7.38249 2.48882 7.44053 2.46553 7.50089 2.46553C7.56125 2.46553 7.61928 2.48882 7.6629 2.53054L13.7426 8.33953C13.8321 8.42541 13.9521 8.47228 14.0762 8.46986C14.2002 8.46745 14.3183 8.41594 14.4044 8.32663C14.5843 8.14031 14.5693 7.83269 14.3821 7.65369Z" fill="white"/>
</svg>
